<svg width="280" height="33" viewBox="0 0 280 33" fill="none" xmlns="http://www.w3.org/2000/svg">
<path fill-rule="evenodd" clip-rule="evenodd" d="M247.139 3.5736C247.442 3.6492 247.673 3.79425 247.831 4.00751C247.988 4.21809 248.069 4.49235 248.077 4.83073C248.083 5.09329 248.038 5.40044 247.942 5.75094C247.847 6.09671 247.703 6.48625 247.509 6.91893C247.332 7.31627 247.138 7.81961 246.927 8.42753C246.717 9.03238 246.489 9.74816 246.243 10.5747C245.998 11.3973 245.735 12.3284 245.456 13.3663C245.177 14.4003 244.882 15.5404 244.571 16.7858L243.248 21.392L243.18 21.8349C244.165 21.7378 245.154 21.67 246.146 21.6313C247.179 21.5909 248.217 21.5816 249.26 21.604C250.357 21.6275 251.454 21.6856 252.549 21.7778C253.648 21.8701 254.75 21.997 255.855 22.1585L258.383 22.3149L259.035 23.4021L258.947 23.7532C258.891 23.9792 258.644 24.1491 258.207 24.2609C257.807 24.3634 257.232 24.4248 256.484 24.4435C255.832 24.46 255.023 24.4561 254.056 24.4318C253.09 24.4078 251.971 24.3634 250.699 24.2989C249.432 24.2346 248.293 24.1915 247.281 24.1705C246.266 24.1491 245.375 24.1491 244.609 24.1705C243.866 24.191 243.246 24.2315 242.749 24.2921C242.261 24.3513 241.897 24.4287 241.66 24.5245L241.618 24.5415L241.573 24.55C241.456 24.5719 241.335 24.5865 241.209 24.5933C241.084 24.5997 240.955 24.5993 240.822 24.5908C240.694 24.5826 240.562 24.5674 240.426 24.5454C240.29 24.5235 240.151 24.4953 240.01 24.46L239.847 24.4191C239.741 24.3928 239.652 24.3474 239.579 24.2829C239.506 24.218 239.451 24.1349 239.415 24.0349C239.391 23.9665 239.378 23.8933 239.378 23.8147C239.377 23.7395 239.387 23.6608 239.408 23.5784L239.422 23.5206L239.449 23.4699C239.659 23.0808 239.933 22.4188 240.27 21.4845C240.606 20.5499 241.007 19.3371 241.474 17.8466C241.943 16.3435 242.473 14.5742 243.064 12.5388C243.655 10.4999 244.309 8.18633 245.026 5.59767C245.116 5.24225 245.217 4.93326 245.329 4.67111C245.443 4.40505 245.569 4.18583 245.706 4.01387C245.882 3.79527 246.076 3.64488 246.287 3.56435C246.501 3.48237 246.731 3.47211 246.976 3.53313L247.139 3.5736Z" fill="white"/>
<path fill-rule="evenodd" clip-rule="evenodd" d="M268.104 3.17321C268.407 3.24902 268.638 3.39386 268.796 3.60732C268.952 3.8177 269.034 4.09219 269.042 4.43036C269.048 4.69313 269.003 5.00027 268.907 5.35077C268.812 5.69633 268.668 6.08607 268.474 6.51854C268.296 6.91588 268.102 7.41922 267.891 8.02714C267.682 8.63199 267.454 9.34779 267.207 10.1743C266.962 10.9969 266.699 11.928 266.42 12.966C266.142 14 265.847 15.14 265.536 16.3854L264.213 20.9918L264.145 21.4346C265.129 21.3374 266.118 21.2696 267.111 21.231C268.143 21.1905 269.181 21.1812 270.224 21.2036C271.322 21.2271 272.418 21.2852 273.513 21.3774C274.612 21.4697 275.715 21.5967 276.82 21.7584L279.347 21.9145L280 23.0017L279.912 23.3528C279.855 23.5788 279.608 23.7487 279.172 23.8605C278.771 23.963 278.197 24.0247 277.449 24.0432C276.797 24.0598 275.987 24.0559 275.021 24.0314C274.055 24.0076 272.936 23.963 271.663 23.8987C270.397 23.8342 269.258 23.7913 268.246 23.7703C267.231 23.7487 266.34 23.7487 265.573 23.7703C264.83 23.7909 264.211 23.8313 263.713 23.8917C263.225 23.9509 262.862 24.0286 262.625 24.1243L262.582 24.1414L262.537 24.1496C262.421 24.1716 262.299 24.1861 262.174 24.1931C262.049 24.1995 261.919 24.1989 261.786 24.1907C261.658 24.1822 261.526 24.1672 261.391 24.1453C261.254 24.1233 261.116 24.0949 260.975 24.0598L260.811 24.0187C260.705 23.9924 260.616 23.947 260.543 23.8825C260.47 23.8176 260.415 23.7346 260.379 23.6345C260.355 23.5661 260.343 23.493 260.342 23.4143C260.341 23.3391 260.352 23.2606 260.372 23.178L260.386 23.1205L260.414 23.0697C260.624 22.6806 260.898 22.0184 261.234 21.0841C261.571 20.1497 261.972 18.9369 262.438 17.4464C262.908 15.9431 263.438 14.1738 264.028 12.1384C264.62 10.0997 265.274 7.78596 265.991 5.1975C266.08 4.84208 266.181 4.53287 266.294 4.27071C266.407 4.00466 266.533 3.78545 266.671 3.6137C266.846 3.3949 267.04 3.24449 267.251 3.16396C267.465 3.08198 267.695 3.07172 267.94 3.13274L268.104 3.17321Z" fill="white"/>
<path fill-rule="evenodd" clip-rule="evenodd" d="M210.074 4.01377C210.831 4.17238 211.491 4.35441 212.056 4.55903C212.625 4.76551 213.097 4.99542 213.473 5.24833C213.894 5.53247 214.201 5.84742 214.395 6.1936C214.59 6.54409 214.668 6.92438 214.627 7.33302L214.625 7.35419C214.576 7.68804 214.38 8.0225 214.035 8.35697C213.702 8.68015 213.228 9.00681 212.612 9.33533C212.05 9.63508 211.361 9.9451 210.548 10.2648C209.759 10.5744 208.847 10.8957 207.812 11.2271L207.886 12.1146L207.878 12.1685C207.816 12.5952 207.809 13.1528 207.857 13.8406C207.906 14.5324 208.01 15.355 208.17 16.3077C208.332 17.2708 208.551 18.3648 208.826 19.5893C209.102 20.8134 209.435 22.1702 209.825 23.6582C210.258 24.698 210.703 25.6174 211.16 26.4162C211.617 27.2139 212.084 27.8901 212.562 28.4437C213.025 28.9787 213.496 29.3976 213.975 29.7005C214.451 30.0006 214.935 30.1862 215.427 30.2579L215.58 30.2805C215.969 30.3146 216.395 30.2994 216.858 30.2355C217.324 30.1716 217.829 30.0567 218.372 29.8932C218.925 29.7262 219.515 29.5086 220.141 29.2405C220.765 28.973 221.426 28.6552 222.125 28.287L223.247 27.271H223.291C223.68 27.2696 223.948 27.3091 224.215 27.3487C224.348 27.3676 224.481 27.3877 224.62 27.4013L224.739 27.413L224.614 28.2685L224.601 28.3079C224.517 28.5574 224.343 28.8197 224.079 29.094C223.821 29.3615 223.476 29.6438 223.044 29.9396C222.638 30.2174 222.151 30.5122 221.582 30.8247C221.016 31.1362 220.367 31.4653 219.637 31.8119L219.593 31.8306C219.133 31.9925 218.703 32.1326 218.302 32.2493C217.903 32.366 217.537 32.4588 217.202 32.5281C216.855 32.6 216.541 32.6462 216.261 32.6668C215.977 32.6877 215.725 32.6824 215.508 32.6507C214.75 32.5408 214.025 32.2953 213.331 31.9144C212.639 31.5351 211.98 31.0211 211.352 30.3727C210.739 29.7403 210.157 28.9787 209.604 28.0883C209.053 27.1998 208.532 26.1832 208.041 25.0384L208.028 25.0037C207.721 24.0917 207.441 23.2007 207.185 22.3312C206.929 21.4578 206.697 20.6034 206.49 19.7676C206.284 18.9337 206.102 18.1179 205.945 17.3215C205.788 16.5244 205.655 15.7416 205.545 14.9747C205.448 14.5583 205.355 14.1954 205.265 13.8854C205.176 13.577 205.089 13.3192 205.005 13.1131C204.943 12.9592 204.893 12.8436 204.855 12.7655C204.834 12.7222 204.89 12.7098 204.864 12.7065L204.825 12.7006C204.616 12.7098 204.397 12.7314 204.168 12.7655C203.933 12.8013 203.692 12.8485 203.445 12.9085C203.188 12.9712 202.92 13.0478 202.641 13.1386C202.366 13.2278 202.078 13.3323 201.779 13.4509C201.487 13.5676 201.228 13.6765 201.004 13.7775C200.781 13.8782 200.594 13.9694 200.445 14.0514C200.318 14.1208 200.23 14.1564 200.177 14.1773C200.146 14.3542 200.09 14.5626 200.038 14.759C200.011 14.8605 199.984 14.9581 199.966 15.0343C199.915 15.3897 199.861 15.8062 199.807 16.2812C199.751 16.767 199.694 17.3031 199.636 17.8894C199.579 18.4743 199.518 19.1383 199.454 19.8798C199.391 20.6073 199.326 21.3855 199.26 22.2141C199.258 22.2219 199.258 22.2351 199.257 22.2439C199.238 22.3762 199.199 22.4997 199.141 22.6129C199.084 22.7261 199.006 22.8292 198.911 22.9211C198.823 23.0041 198.723 23.0762 198.609 23.1378C198.497 23.1978 198.372 23.2481 198.235 23.2876L198.163 23.3081L198.131 23.3067C198.099 23.3057 198.072 23.3046 198.042 23.3003C197.821 23.2681 197.626 23.2202 197.458 23.1567C197.286 23.0924 197.142 23.0102 197.024 22.9122C196.882 22.7927 196.78 22.6544 196.719 22.4976C196.659 22.3415 196.64 22.1695 196.662 21.9822C196.665 21.9372 196.673 21.8889 196.681 21.8439L196.691 21.7853C197.045 19.3506 197.344 17.1595 197.587 15.2134C197.832 13.2611 198.02 11.5655 198.152 10.1277C198.272 8.81431 198.346 7.70961 198.376 6.81508C198.403 5.97726 198.389 5.32454 198.336 4.85838L197.859 4.78956L198.275 4.17875C198.553 3.7695 198.845 3.47366 199.15 3.2906C199.464 3.1018 199.791 3.03236 200.131 3.08166L200.24 3.09727L201.346 3.86669L201.838 4.00043C202.591 3.91948 203.764 3.71938 204.474 3.71938C204.979 3.70767 205.475 3.70457 205.961 3.71053C206.45 3.71628 206.926 3.7315 207.39 3.75553C207.856 3.77937 208.311 3.81264 208.755 3.85455C209.2 3.89707 209.631 3.94886 210.046 4.00885L210.074 4.01377ZM200.967 6.98109L200.493 10.2424C200.451 10.528 200.42 10.7741 200.4 10.9812C200.38 11.1909 200.37 11.3643 200.37 11.5001C200.37 11.5119 200.369 11.5229 200.367 11.5332C200.483 11.5392 200.605 11.5386 200.733 11.5322C200.964 11.5205 201.214 11.4884 201.483 11.436C201.761 11.382 202.056 11.3068 202.367 11.2111C202.68 11.1149 203.007 10.9982 203.35 10.8614C204.529 10.3342 205.575 9.86991 206.489 9.46949C207.4 9.0701 208.189 8.72946 208.855 8.4482C209.469 8.18954 209.968 7.98532 210.352 7.83739C210.728 7.69235 210.999 7.59826 211.166 7.55532C211.318 7.45958 211.453 7.36733 211.57 7.27837C211.691 7.18756 211.792 7.10126 211.873 7.02011C211.917 6.97614 211.954 6.93465 211.985 6.89664L211.996 6.8839C211.86 6.79556 211.711 6.71113 211.55 6.63162C211.352 6.53342 211.133 6.4422 210.897 6.35776C210.607 6.25462 210.29 6.16278 209.946 6.08225C209.603 6.00171 209.232 5.93288 208.836 5.87535C208.222 5.78598 207.601 5.73852 206.975 5.73318C206.348 5.72743 205.712 5.764 205.066 5.84207C204.43 5.91932 203.785 6.03746 203.134 6.19607C202.488 6.35323 201.834 6.55107 201.172 6.78816L200.967 6.98109Z" fill="white"/>
<path fill-rule="evenodd" clip-rule="evenodd" d="M181.754 2.56288C182.148 2.59185 182.469 2.94728 182.716 3.62917C182.949 4.27325 183.125 5.22365 183.241 6.47936C183.348 7.6346 183.42 9.07295 183.456 10.7928C183.492 12.5095 183.493 14.5087 183.458 16.7886C183.475 17.2628 183.495 17.71 183.517 18.1308C183.539 18.5437 183.563 18.9325 183.591 19.2961C183.619 19.653 183.649 19.9796 183.681 20.2751C183.714 20.5748 183.749 20.8444 183.786 21.0821C183.841 21.4301 183.825 21.7221 183.738 21.9569C183.647 22.2016 183.48 22.3828 183.24 22.4999C183.041 22.596 182.797 22.6336 182.508 22.6123C182.229 22.5911 181.907 22.5151 181.54 22.3836L181.432 22.3452L181.456 22.2811C181.329 22.1108 181.229 21.7471 181.154 21.1899C181.072 20.5791 181.015 19.72 180.983 18.6132C180.952 17.5112 180.924 16.1287 180.902 14.4668C180.88 12.8132 180.863 10.8821 180.85 8.67459C180.826 8.31465 180.798 7.98941 180.767 7.69993C180.736 7.41251 180.701 7.15715 180.662 6.93506C180.643 6.82514 180.624 6.73002 180.606 6.6499L180.597 6.60941C180.255 6.9486 179.921 7.303 179.596 7.67261C179.227 8.09152 178.87 8.52852 178.525 8.98359C178.143 9.48632 177.774 10.0141 177.418 10.5668C177.063 11.118 176.722 11.6922 176.395 12.2889L176.385 12.3063C175.912 13.085 175.478 13.7823 175.082 14.3978C174.68 15.0213 174.313 15.5705 173.98 16.0441C173.641 16.526 173.335 16.9343 173.061 17.2671C172.787 17.602 172.546 17.8608 172.339 18.0439L172.193 18.1723L171.488 18.1205L171.365 17.9921C170.76 17.3575 170.212 16.7627 169.721 16.2086C169.23 15.6541 168.799 15.1434 168.428 14.6762C168.052 14.2016 167.733 13.766 167.472 13.3708C167.21 12.9732 167.008 12.6178 166.866 12.3049L166.036 10.5058C165.994 10.6331 165.952 10.7753 165.908 10.9321C165.83 11.2078 165.749 11.5291 165.665 11.8952C165.533 12.4705 165.395 13.1505 165.251 13.9366C165.107 14.7245 164.957 15.6155 164.801 16.609C164.71 17.3941 164.621 18.0811 164.532 18.6693C164.443 19.2616 164.355 19.7571 164.268 20.1555C164.175 20.5822 164.067 20.9171 163.944 21.1597C163.814 21.417 163.663 21.5762 163.492 21.6372C163.362 21.6997 163.234 21.7543 163.111 21.8007C162.983 21.849 162.86 21.8881 162.742 21.9178C162.612 21.9511 162.484 21.9741 162.361 21.9867C162.236 21.9994 162.116 22.0019 162.001 21.9937C161.9 21.9863 161.805 21.9585 161.716 21.9107C161.629 21.8642 161.549 21.7983 161.476 21.7134C161.425 21.6542 161.378 21.585 161.334 21.5053C161.292 21.4293 161.252 21.3418 161.216 21.2438L161.168 21.1162L163.812 9.37128C163.896 8.56653 163.99 7.86266 164.093 7.26111C164.197 6.65483 164.312 6.14695 164.437 5.73934C164.583 5.25653 164.758 4.8937 164.958 4.65004C165.169 4.39323 165.411 4.26585 165.682 4.26729L166.517 4.19456L166.549 4.27264C166.688 4.60999 166.866 5.01328 167.052 5.43363C167.449 6.33145 167.882 7.31 168.098 8.04119V8.04222C168.246 8.55481 168.432 9.07625 168.657 9.60507C168.881 10.1347 169.145 10.6752 169.449 11.2269C169.75 11.7728 170.089 12.3273 170.465 12.8902C170.839 13.4492 171.25 14.0171 171.698 14.5928L171.852 14.684L171.93 14.6899C172.078 14.5794 172.265 14.3906 172.49 14.1239C172.736 13.8334 173.024 13.4527 173.356 12.9806C173.73 12.4503 174.152 11.8114 174.621 11.0644C175.092 10.3153 175.611 9.45961 176.177 8.49687C176.783 7.46613 177.74 6.19584 178.627 5.0178C179.048 4.45918 179.453 3.92112 179.793 3.44673L179.801 3.43502L179.844 3.39886C179.961 3.29881 180.087 3.20594 180.221 3.12109C180.355 3.03603 180.498 2.959 180.648 2.89018C180.795 2.82217 180.95 2.76115 181.114 2.70794C181.276 2.65473 181.447 2.6089 181.624 2.57069L181.684 2.55817L181.754 2.56288Z" fill="white"/>
<path fill-rule="evenodd" clip-rule="evenodd" d="M152.97 1.1506L153.137 1.15451C153.431 1.16232 153.701 1.27059 153.947 1.48056C154.186 1.68313 154.4 1.98042 154.591 2.3716C154.755 2.70792 154.907 3.12149 155.046 3.61107C155.184 4.09942 155.31 4.66419 155.423 5.30478C155.532 5.9238 155.651 6.55126 155.778 7.18589C155.905 7.82011 156.04 8.45864 156.184 9.1021C156.319 9.70551 156.462 10.3159 156.612 10.9324C156.754 11.513 156.903 12.1012 157.059 12.6968C157.416 12.6833 157.743 12.6769 158.04 12.6773C158.365 12.678 158.65 12.6866 158.895 12.7038C159.203 12.7248 159.461 12.7618 159.668 12.8142C159.886 12.8692 160.052 12.9426 160.166 13.0338L160.355 13.1846L160.345 13.3169C160.341 13.3691 160.337 13.4215 160.336 13.4615V13.4659C160.315 13.7373 160.261 13.9766 160.174 14.1825C160.086 14.393 159.964 14.5697 159.808 14.7117C159.65 14.8563 159.462 14.9607 159.246 15.0242C159.035 15.0862 158.797 15.1092 158.532 15.0926L158.265 15.0749C158.191 15.071 158.125 15.0681 158.067 15.0667C157.969 15.0642 157.882 15.0649 157.807 15.0671L157.725 15.0716C157.74 15.2079 157.772 15.3732 157.82 15.5666C157.883 15.8187 157.975 16.1159 158.093 16.4572C158.23 16.8496 158.402 17.2958 158.609 17.7953C158.817 18.2986 159.06 18.8538 159.338 19.4607L159.358 19.5046C159.441 19.8771 159.524 20.2506 159.609 20.6227L159.607 20.6823C159.602 20.8824 159.566 21.0679 159.498 21.2378C159.43 21.4091 159.329 21.5644 159.199 21.7031C159.078 21.8315 158.932 21.9433 158.761 22.0384C158.592 22.1327 158.399 22.2104 158.184 22.2718C157.858 22.3637 157.54 22.2357 157.229 21.8886C156.94 21.5669 156.653 21.0484 156.368 20.334C156.131 19.739 155.879 18.9924 155.614 18.0952C155.356 17.2213 155.083 16.2004 154.796 15.033C153.955 15.0404 153.213 15.0554 152.57 15.0788C151.904 15.1033 151.348 15.136 150.899 15.177C150.446 15.2181 150.128 15.2103 149.944 15.2054C149.912 15.205 149.893 15.1203 149.882 15.0901L149.874 15.0897L149.873 15.1064L149.872 15.1532L149.862 15.1947C149.657 16.1075 149.443 16.9166 149.218 17.6215C148.994 18.3284 148.759 18.9304 148.515 19.4276C148.25 19.9675 147.967 20.3932 147.667 20.7036C147.359 21.0225 147.031 21.2232 146.685 21.3048L146.629 21.3179L146.567 21.3165C146.406 21.312 146.26 21.2764 146.129 21.2086C145.998 21.1412 145.883 21.0426 145.784 20.9126C145.705 20.8078 145.638 20.6833 145.585 20.5397C145.534 20.3991 145.495 20.2393 145.469 20.0608L145.451 19.9352L145.499 19.82C145.809 19.0691 146.082 18.4007 146.316 17.8144C146.549 17.2309 146.744 16.7325 146.899 16.32C146.991 16.0749 147.07 15.8601 147.135 15.6765C147.174 15.5666 147.207 15.4686 147.236 15.3831C146.936 15.3938 146.661 15.3928 146.413 15.3806C146.116 15.365 145.857 15.3334 145.635 15.2849C145.307 15.2132 145.043 15.1029 144.846 14.9535C144.641 14.7986 144.508 14.6034 144.446 14.3686L144.429 14.3065L144.433 14.1855L144.437 14.1387C144.459 13.932 144.529 13.7525 144.645 13.601C144.761 13.4507 144.921 13.3292 145.125 13.2374C145.285 13.1651 145.475 13.1129 145.694 13.081C145.907 13.0498 146.152 13.0377 146.426 13.0445C146.531 13.0474 146.636 13.0523 146.739 13.0591C146.845 13.0665 146.954 13.0763 147.065 13.088C147.261 13.1001 147.43 13.1036 147.572 13.0983C147.71 13.0934 147.823 13.0802 147.91 13.0582L147.927 13.0548C148.408 11.5749 148.85 10.2173 149.253 8.98357C149.674 7.69664 150.043 6.57118 150.359 5.61193C150.647 4.73549 150.886 4.0158 151.075 3.45287C151.257 2.90864 151.376 2.56286 151.431 2.41493C151.504 2.21729 151.589 2.04206 151.685 1.88961C151.782 1.73491 151.892 1.60403 152.013 1.49719C152.149 1.37762 152.297 1.28826 152.457 1.23053C152.616 1.17259 152.787 1.14567 152.97 1.1506ZM152.982 6.36901L150.919 12.9824C151.161 12.9835 151.403 12.9816 151.643 12.9767C151.93 12.9703 152.218 12.9596 152.507 12.9448C152.797 12.9292 153.091 12.9089 153.391 12.883C153.646 12.8604 153.9 12.8351 154.152 12.8057C153.974 11.693 153.806 10.6894 153.649 9.79385C153.487 8.86871 153.341 8.08268 153.21 7.4349C153.154 7.15466 153.096 6.88264 153.039 6.6211L152.982 6.36901Z" fill="white"/>
<path fill-rule="evenodd" clip-rule="evenodd" d="M128.234 4.2513C128.318 4.26383 128.41 4.29936 128.51 4.35627C128.604 4.4103 128.707 4.48488 128.818 4.57959C128.898 4.6478 128.986 4.72773 129.081 4.81895C129.169 4.90359 129.265 4.99953 129.369 5.10698L129.446 5.1189C131.567 5.24607 133.422 5.38106 135.011 5.52508C136.602 5.6691 137.933 5.82195 139.003 5.98405C140.169 6.16074 141.048 6.36721 141.64 6.60307C142.27 6.85392 142.592 7.14996 142.606 7.48957C142.605 7.53148 142.603 7.558 142.599 7.60012L142.588 7.66278C142.547 7.87131 142.451 8.04696 142.298 8.18852C142.15 8.32637 141.951 8.43074 141.7 8.5008C141.509 8.55463 141.281 8.58914 141.017 8.60393C140.756 8.6181 140.461 8.614 140.131 8.59017C139.843 8.56942 139.521 8.53347 139.165 8.4821C138.812 8.43074 138.428 8.3652 138.014 8.28466L136.949 8.12319C135.539 7.94116 134.3 7.79816 133.232 7.69462C132.171 7.59148 131.281 7.52779 130.564 7.50395C129.949 7.48341 129.487 7.47684 129.177 7.48383C128.93 7.48917 128.817 7.41951 128.813 7.44848L128.554 7.90685C128.53 7.9804 128.507 8.06751 128.481 8.16695C128.446 8.3083 128.409 8.47656 128.37 8.6703L128.12 10.3254C128.064 10.6942 128.026 11.0194 128.007 11.3013C127.988 11.5774 127.987 11.8073 128.004 11.9901C128.012 12.0736 128.02 12.1424 128.028 12.1964C128.589 12.1171 129.157 12.0505 129.729 11.9965C130.34 11.9386 130.953 11.8948 131.566 11.8659C132.194 11.8359 132.826 11.8205 133.464 11.8196C134.1 11.8186 134.745 11.8328 135.398 11.8609C135.857 11.8808 136.275 11.9139 136.653 11.9595C137.031 12.0053 137.367 12.0639 137.661 12.1356C137.924 12.1997 138.157 12.2751 138.357 12.3612C138.561 12.4495 138.734 12.55 138.875 12.662C139.049 12.7996 139.177 12.9535 139.26 13.123C139.345 13.2952 139.383 13.4825 139.374 13.6841C139.372 13.7237 139.368 13.7656 139.362 13.8086C139.355 13.853 139.347 13.8953 139.338 13.9353L139.322 13.9986C139.28 14.1484 139.202 14.2708 139.09 14.3662C138.98 14.4588 138.839 14.5236 138.667 14.5605C138.553 14.585 138.421 14.5963 138.271 14.5946C138.126 14.5919 137.961 14.5774 137.78 14.5503C137.63 14.5272 137.469 14.4962 137.297 14.457C137.128 14.4186 136.942 14.3709 136.74 14.3136L136.184 14.2293C135.529 14.1301 134.854 14.0633 134.161 14.028C133.469 13.9931 132.757 13.9906 132.027 14.02C131.317 14.0483 130.592 14.1069 129.855 14.1954C129.134 14.2815 128.395 14.3964 127.641 14.5402L127.533 14.7471L127.526 14.7927C127.52 14.8395 127.513 14.887 127.505 14.9305C127.376 15.7836 127.288 16.5351 127.241 17.1837C127.195 17.8284 127.191 18.3677 127.227 18.8016C127.254 19.1351 127.301 19.3914 127.365 19.5708C127.415 19.7097 127.473 19.7952 127.536 19.8274C128.393 19.7187 129.328 19.614 130.341 19.5129C131.367 19.4102 132.473 19.3113 133.659 19.2158C134.864 19.1188 136.143 19.0255 137.497 18.9364C138.838 18.8478 140.276 18.7622 141.809 18.6787L141.973 18.6697L142.105 18.7659C142.26 18.8789 142.395 18.998 142.508 19.1221C142.623 19.2468 142.718 19.3789 142.791 19.5172C142.869 19.6657 142.922 19.8198 142.949 19.9784C142.976 20.1364 142.977 20.2993 142.951 20.467C142.914 20.7135 142.73 20.9108 142.401 21.0564C142.1 21.19 141.667 21.2842 141.104 21.3377C140.632 21.3829 140.049 21.4092 139.358 21.4168C138.668 21.4246 137.873 21.4137 136.973 21.3841C136.075 21.3543 135.196 21.3455 134.338 21.3578C133.481 21.3697 132.64 21.4028 131.814 21.4562C130.988 21.5103 130.18 21.5852 129.389 21.6808C128.598 21.7765 127.82 21.8938 127.055 22.0321C126.844 22.0859 126.626 22.1338 126.402 22.1757C126.175 22.2178 125.944 22.2538 125.708 22.2827C125.464 22.3129 125.218 22.3362 124.969 22.3526C124.72 22.3692 124.463 22.3795 124.196 22.383L124.111 22.3842L124.034 22.3563C123.886 22.3027 123.756 22.2451 123.645 22.1841C123.529 22.1208 123.431 22.0528 123.351 21.9801C123.235 21.8753 123.153 21.7615 123.104 21.6397C123.054 21.5146 123.04 21.3816 123.061 21.2425L123.091 21.0482L123.251 20.9344C123.399 20.8292 123.533 20.7131 123.652 20.5868C123.77 20.4606 123.874 20.3236 123.961 20.1759C124.051 20.0259 124.126 19.8638 124.186 19.6898C124.246 19.5145 124.292 19.3274 124.322 19.1295L124.575 17.4613C124.645 16.9959 124.697 16.5836 124.73 16.2257C124.764 15.8703 124.779 15.5709 124.774 15.3279C124.772 15.174 124.769 15.0511 124.765 14.9587L124.761 14.8901L124.688 14.879L124.638 14.8582C124.425 14.769 124.239 14.6731 124.078 14.5706C123.915 14.4666 123.78 14.3561 123.671 14.239C123.537 14.0952 123.444 13.9419 123.389 13.7802C123.334 13.6171 123.32 13.4466 123.347 13.2693L123.36 13.183L123.4 13.1115C123.517 12.9048 123.644 12.7283 123.779 12.5829C123.918 12.4351 124.065 12.3199 124.22 12.2381C124.384 12.1514 124.552 12.1007 124.725 12.0861C124.857 12.0752 124.991 12.0849 125.127 12.1151L125.822 7.52594L124.929 7.33406L124.851 7.2794C124.738 7.19989 124.639 7.11771 124.553 7.03327C124.466 6.9478 124.394 6.86048 124.338 6.77214C124.268 6.6614 124.219 6.54841 124.192 6.43295C124.166 6.31687 124.161 6.19771 124.179 6.07753C124.212 5.86078 124.285 5.6732 124.399 5.51603C124.512 5.35825 124.666 5.23108 124.858 5.13493C125.011 5.05912 125.187 5.0061 125.387 4.97528C125.575 4.94673 125.786 4.9381 126.017 4.9496L127.633 4.27286L128.19 4.24429L128.234 4.2513Z" fill="white"/>
<path fill-rule="evenodd" clip-rule="evenodd" d="M89.7634 3.84638C90.2717 3.7981 90.781 3.86938 91.2897 4.05984C91.7934 4.24823 92.2978 4.55435 92.8016 4.97758C93.2805 5.38046 93.76 5.89018 94.2395 6.50673C94.7174 7.12082 95.1973 7.84401 95.6797 8.67546L95.7301 8.76175L95.8022 9.52643L95.7319 9.65175C95.6329 9.82864 95.5209 9.98623 95.397 10.1239C95.2725 10.2626 95.1342 10.3821 94.983 10.4824C94.8306 10.5835 94.666 10.664 94.4893 10.724C94.3147 10.783 94.1267 10.8226 93.9264 10.8411C93.6682 10.8656 93.4152 10.7953 93.1683 10.6307C92.9314 10.4721 92.6997 10.226 92.4741 9.89213C92.2871 9.61518 92.0977 9.27106 91.9058 8.85954C91.7187 8.4581 91.5278 7.98803 91.3326 7.44955C91.188 7.30162 91.045 7.17261 90.9038 7.06331C90.759 6.95052 90.6179 6.85928 90.4806 6.78984C90.3498 6.72348 90.2209 6.67622 90.095 6.6489C89.9705 6.62137 89.8493 6.61356 89.7318 6.62486L88.6098 6.7313C88.038 6.78513 87.4272 6.95873 86.778 7.2517C86.1247 7.54673 85.434 7.96172 84.705 8.49712C83.9595 9.04505 83.1773 9.71668 82.36 10.5116C81.5417 11.3075 80.6875 12.2266 79.7975 13.2701C79.4967 13.643 79.2395 14.0253 79.025 14.4173C78.8113 14.81 78.6404 15.2127 78.512 15.6256C78.384 16.0388 78.2985 16.4616 78.2562 16.8941C78.2137 17.3282 78.2137 17.7723 78.257 18.227L78.279 18.4587C78.2956 18.8133 78.3573 19.1447 78.4641 19.4537C78.5701 19.7623 78.7219 20.0489 78.9185 20.3135C79.1168 20.5806 79.3619 20.8276 79.6524 21.0542C79.9415 21.2793 80.2764 21.4852 80.6573 21.6713C81.1512 21.7537 81.6219 21.8226 82.0691 21.8782C82.5217 21.9345 82.946 21.9764 83.3419 22.0042C83.7466 22.0325 84.122 22.0473 84.4673 22.0473C84.8154 22.0473 85.1367 22.0331 85.4305 22.0052L86.0462 21.9471C87.5704 21.8026 88.9447 21.6288 90.1677 21.4256C91.3873 21.2231 92.457 20.9907 93.3752 20.7296C94.2658 20.476 95.0065 20.1983 95.5957 19.8967C96.1785 19.5988 96.6141 19.2777 96.9017 18.9333C97.2327 18.536 97.5431 18.1908 97.8322 17.8993C98.1242 17.6045 98.3955 17.3627 98.646 17.1743C98.9336 16.9586 99.2021 16.8057 99.4522 16.717C99.7108 16.6251 99.9516 16.6002 100.173 16.6422C100.348 16.6754 100.502 16.713 100.637 16.7554C100.774 16.7989 100.894 16.8482 100.997 16.9033C101.146 16.9824 101.261 17.0763 101.343 17.1835C101.428 17.2955 101.478 17.4214 101.491 17.5615L101.528 17.9535L101.414 18.0986C101.019 18.5999 100.548 19.0823 100.001 19.5437C99.4565 20.0041 98.8371 20.4444 98.1426 20.8637C97.4577 21.2777 96.6975 21.6732 95.8623 22.0502C95.0284 22.4266 94.1204 22.7839 93.1385 23.1229L93.1034 23.1335C92.5858 23.2673 92.0751 23.3899 91.5724 23.5011C91.0674 23.6131 90.5725 23.7131 90.088 23.8019C89.6003 23.8908 89.1234 23.9683 88.6577 24.0338C88.1938 24.0991 87.7368 24.153 87.2886 24.1953L84.5341 24.4566C83.5465 24.5499 82.631 24.5421 81.7893 24.4326C80.9437 24.3229 80.1718 24.1104 79.4743 23.7969C78.7663 23.4783 78.136 23.0569 77.5829 22.5326C77.0303 22.0091 76.5551 21.3823 76.1573 20.6534C76.1464 20.6338 76.1421 20.6225 76.1333 20.6005C76.063 20.4189 75.9981 20.2418 75.9406 20.0695C75.8824 19.8971 75.8325 19.734 75.791 19.5807C75.7481 19.4225 75.7119 19.2678 75.6838 19.1174C75.6554 18.9695 75.6344 18.8259 75.6211 18.6868C75.5543 17.9813 75.6192 17.2388 75.8161 16.4595C76.0119 15.6827 76.3383 14.8689 76.7959 14.0175C77.2431 13.1855 77.8157 12.316 78.5148 11.409C79.2115 10.5048 80.0337 9.563 80.9809 8.58465C81.6697 7.87236 82.3685 7.23915 83.0772 6.68485C83.7867 6.13034 84.5053 5.65576 85.2332 5.26129C85.9679 4.86334 86.7131 4.54614 87.4673 4.31029C88.2221 4.07443 88.9876 3.91973 89.7634 3.84638Z" fill="white"/>
<path fill-rule="evenodd" clip-rule="evenodd" d="M48.3356 6.19824C48.4175 6.21323 48.5079 6.25165 48.607 6.31226C48.6992 6.36958 48.8003 6.44724 48.9092 6.54585C48.9874 6.61612 49.0737 6.69994 49.1668 6.79486C49.2512 6.88094 49.3435 6.97935 49.4433 7.08865L49.5194 7.10241C51.6312 7.2941 53.4814 7.48661 55.0687 7.67912C56.6581 7.87265 57.9849 8.06638 59.0473 8.26053C60.2056 8.47276 61.0773 8.70615 61.6618 8.95988C62.2839 9.23025 62.5966 9.53576 62.6005 9.87578C62.6009 9.91851 62.5964 9.94501 62.5902 9.98897L62.5783 10.0496C62.5315 10.2567 62.4296 10.4282 62.2732 10.5653C62.1216 10.698 61.9192 10.796 61.6663 10.8586C61.472 10.9069 61.2433 10.9345 60.9814 10.9412C60.7217 10.9474 60.4266 10.9338 60.0959 10.8999C59.8052 10.8703 59.481 10.8241 59.1243 10.7615C58.7736 10.6998 58.3927 10.6226 57.9822 10.5293L56.926 10.3364C55.5113 10.1092 54.2753 9.92858 53.2191 9.79277C52.1608 9.65677 51.2762 9.56636 50.5653 9.52096C49.9535 9.48171 49.4916 9.46096 49.18 9.4585C48.9322 9.45603 48.8214 9.38537 48.8163 9.41352L48.5424 9.8653C48.5174 9.93639 48.4913 10.0218 48.4633 10.1209C48.4239 10.2608 48.3818 10.4284 48.3366 10.624L48.0354 12.2686C47.9674 12.6415 47.9197 12.9655 47.892 13.241C47.8647 13.5143 47.8571 13.7434 47.8686 13.9272C47.8739 14.015 47.8797 14.084 47.8852 14.1345C48.4516 14.0729 49.0216 14.0234 49.5946 13.9866C50.2017 13.9482 50.8139 13.9231 51.4319 13.9127C52.0603 13.902 52.694 13.9059 53.3319 13.9246C53.976 13.9435 54.6196 13.9768 55.2629 14.0248C55.7217 14.0585 56.1402 14.1043 56.5174 14.1617C56.8952 14.219 57.2292 14.288 57.5187 14.3681C57.7784 14.44 58.0075 14.5224 58.2049 14.6151C58.4056 14.709 58.5753 14.815 58.7134 14.9317C58.8821 15.074 59.0064 15.2321 59.0844 15.4046C59.1638 15.5795 59.1962 15.7677 59.1814 15.9682C59.1783 16.0076 59.1732 16.0504 59.1652 16.0947C59.1576 16.1383 59.1483 16.1802 59.1375 16.2198C59.1331 16.2416 59.1274 16.2628 59.1208 16.2837C59.0736 16.4308 58.9924 16.5504 58.8767 16.6416C58.7646 16.7304 58.6214 16.7908 58.4482 16.8228C58.3325 16.8434 58.1998 16.851 58.0494 16.8442C57.9019 16.8378 57.7386 16.8185 57.5602 16.7855C57.4135 16.7585 57.251 16.7224 57.0737 16.6759C56.9032 16.6318 56.7199 16.5786 56.5252 16.5169L55.9754 16.4167C55.3204 16.2967 54.6469 16.2087 53.9573 16.1525C53.2665 16.0962 52.5563 16.0717 51.8272 16.0789C51.1206 16.0855 50.396 16.1218 49.6545 16.188C48.9305 16.2521 48.1882 16.345 47.4281 16.4656L47.3134 16.67L47.2814 16.8495C47.1253 17.7007 47.0139 18.4498 46.9477 19.0953C46.8818 19.7388 46.8602 20.2781 46.883 20.7122C46.9007 21.0454 46.9393 21.3029 46.9983 21.4841C47.0443 21.6248 47.0985 21.7123 47.1616 21.7462C48.0216 21.6645 48.9585 21.5884 49.9715 21.5184C50.9959 21.4479 52.1055 21.3828 53.3 21.3232C54.5179 21.2624 55.8003 21.2086 57.1469 21.1611C58.5051 21.113 59.9436 21.0713 61.4619 21.0347L61.6254 21.0315L61.7547 21.1317C61.9075 21.2507 62.039 21.3744 62.1489 21.5015C62.2599 21.6301 62.3501 21.7641 62.4181 21.9034C62.4924 22.055 62.5409 22.2105 62.5627 22.3694C62.5845 22.5286 62.5802 22.6919 62.55 22.8593C62.5048 23.1042 62.3158 23.2955 61.9823 23.4315C61.676 23.5564 61.2408 23.637 60.6773 23.6733C60.2083 23.7035 59.6279 23.7115 58.9378 23.6978C58.2538 23.684 57.4561 23.6483 56.5461 23.5901C55.6559 23.5336 54.7805 23.4985 53.9217 23.4847C53.0652 23.4705 52.2202 23.478 51.3881 23.5065C50.5583 23.5355 49.746 23.5854 48.9525 23.6563C48.1593 23.7274 47.3847 23.8192 46.6281 23.9324C46.4156 23.9799 46.1933 24.022 45.9608 24.0577C45.7301 24.0939 45.4963 24.1231 45.2596 24.1448C45.0215 24.1672 44.7727 24.1833 44.5146 24.1925C44.2601 24.2015 44.0037 24.2044 43.7452 24.2001L43.663 24.1991L43.5819 24.1662C43.4362 24.1085 43.3086 24.0466 43.1991 23.9821C43.0849 23.9147 42.9894 23.8436 42.9125 23.7697C42.8003 23.6616 42.7215 23.5447 42.6761 23.4204C42.6298 23.2939 42.6189 23.1603 42.6444 23.0231L42.6797 22.8316L42.8429 22.7229C42.9951 22.6229 43.1326 22.5105 43.255 22.3874C43.3781 22.2646 43.4857 22.1304 43.578 21.9864C43.6719 21.8393 43.7514 21.6796 43.8163 21.5079C43.8816 21.3359 43.9326 21.1496 43.9689 20.9499L44.2728 19.2895C44.3581 18.8241 44.4226 18.4146 44.4667 18.0617C44.5105 17.7069 44.5343 17.4077 44.5384 17.1643C44.5403 17.0143 44.5407 16.8917 44.5397 16.7978L44.538 16.7273L44.4682 16.7148L44.4156 16.6909C44.2046 16.5942 44.0209 16.4925 43.864 16.3856C43.7045 16.2772 43.5724 16.1627 43.4676 16.0425C43.3394 15.8946 43.2505 15.7389 43.2008 15.5755C43.151 15.4102 43.1422 15.2388 43.1747 15.0621L43.1895 14.9806L43.2332 14.9083C43.3565 14.7055 43.4884 14.5329 43.6277 14.3915C43.7697 14.2479 43.9198 14.1378 44.0774 14.0597C44.2424 13.9784 44.4131 13.9328 44.5869 13.9237C44.7186 13.9164 44.8524 13.9305 44.9884 13.9654L45.8235 9.39955L44.9382 9.18054L44.8624 9.12322C44.7519 9.04042 44.6543 8.95475 44.5709 8.86743C44.4869 8.77929 44.4172 8.6895 44.3636 8.5989C44.2962 8.48632 44.2514 8.37168 44.2284 8.2556C44.2054 8.13746 44.2042 8.01852 44.2262 7.89915C44.266 7.68425 44.3445 7.49996 44.4628 7.34628C44.5812 7.19199 44.7379 7.06954 44.9329 6.97997C45.087 6.90909 45.2645 6.86143 45.465 6.83657C45.6555 6.81336 45.8661 6.81088 46.0955 6.82917L47.7309 6.20275C47.9181 6.19844 48.1052 6.19392 48.2924 6.19125C48.3008 6.19269 48.3312 6.19885 48.3356 6.19824Z" fill="white"/>
<path fill-rule="evenodd" clip-rule="evenodd" d="M31.8708 5.00005C32.3801 5.03334 32.8715 5.18454 33.343 5.45307C33.811 5.71912 34.2601 6.10168 34.6904 6.59989C35.0986 7.07283 35.4906 7.65241 35.8668 8.3384C36.2411 9.02173 36.6004 9.81208 36.9433 10.7083L36.9805 10.8054L36.931 11.5695L36.8414 11.6819C36.7171 11.8391 36.5819 11.9759 36.4371 12.0922C36.2914 12.2087 36.1351 12.3052 35.9685 12.3808C35.801 12.4568 35.6252 12.5103 35.4415 12.5421C35.2588 12.5731 35.0682 12.5826 34.8697 12.5696C34.6109 12.5526 34.3721 12.4427 34.1548 12.2407C33.9458 12.0464 33.7562 11.7661 33.5859 11.3994C33.4447 11.0955 33.312 10.7247 33.1881 10.2877C33.0669 9.86037 32.9527 9.36565 32.8462 8.80498C32.7269 8.63651 32.6069 8.48715 32.4857 8.3571C32.3618 8.22438 32.2369 8.1122 32.1118 8.02078C31.9924 7.93429 31.8728 7.86751 31.7533 7.82067C31.6351 7.77424 31.5168 7.74754 31.3982 7.73973L30.274 7.66618C29.6992 7.62858 29.0682 7.70274 28.381 7.88846C27.6901 8.07521 26.9418 8.37517 26.1369 8.78812C25.3139 9.21053 24.4358 9.74901 23.5032 10.4036C22.5703 11.0581 21.5809 11.8302 20.5349 12.7194C20.1783 13.0405 19.8621 13.3777 19.588 13.7314C19.3143 14.085 19.0812 14.455 18.8893 14.8417C18.6976 15.2281 18.546 15.6318 18.436 16.0516C18.3253 16.4723 18.255 16.9114 18.225 17.3683L18.2092 17.6009C18.1696 17.9524 18.1778 18.29 18.2343 18.6131C18.2906 18.9351 18.3943 19.2426 18.5464 19.5346C18.6992 19.8294 18.9018 20.1119 19.1539 20.3822C19.4043 20.6512 19.7037 20.908 20.0515 21.1529C20.5259 21.3129 20.9772 21.4551 21.4052 21.5798C21.8393 21.7057 22.2535 21.8151 22.6459 21.9073C23.0373 21.9991 23.4048 22.0721 23.7469 22.1271C24.0896 22.1826 24.4093 22.2198 24.7055 22.2391L25.3227 22.2794C26.8535 22.379 28.238 22.4263 29.4759 22.4201C30.7116 22.4139 31.8044 22.3548 32.7528 22.243C33.6717 22.1345 34.4465 21.978 35.0764 21.7742C35.6991 21.5722 36.1803 21.3234 36.5193 21.0296C36.9067 20.6918 37.2679 20.4018 37.602 20.1585C37.936 19.9149 38.243 19.7191 38.5224 19.5715C38.8394 19.4039 39.1285 19.2958 39.3892 19.2484C39.6591 19.1991 39.9012 19.213 40.114 19.2899C40.2823 19.3509 40.4298 19.4131 40.5557 19.4762C40.6852 19.5409 40.7957 19.6079 40.8861 19.6772C41.0196 19.7793 41.1187 19.8898 41.1834 20.0094C41.2497 20.1337 41.2785 20.2655 41.2695 20.4055L41.2438 20.7989L41.1074 20.9246C40.6371 21.3571 40.0963 21.7571 39.4851 22.1251C38.8747 22.4926 38.192 22.8285 37.4387 23.1326C36.6964 23.4323 35.8822 23.7025 34.9965 23.9421C34.1118 24.182 33.1589 24.3908 32.1385 24.5683L32.1025 24.5728C31.5653 24.6229 31.0391 24.6632 30.5249 24.6932C30.0123 24.7236 29.51 24.7439 29.0183 24.7542C28.5226 24.7647 28.0389 24.7651 27.5685 24.7556C27.097 24.7464 26.638 24.7271 26.1926 24.6983L23.4315 24.5179C22.4431 24.4532 21.5408 24.2997 20.7266 24.0573C19.9095 23.8145 19.1808 23.4819 18.5416 23.0609C17.893 22.634 17.3373 22.1177 16.8744 21.5124C16.4124 20.9078 16.0428 20.2138 15.7662 19.4312C15.758 19.4092 15.7558 19.3984 15.7504 19.3749C15.7085 19.1796 15.673 18.9946 15.644 18.82C15.6148 18.6446 15.5918 18.4757 15.5745 18.3132C15.5573 18.1455 15.5458 17.9861 15.5417 17.8361C15.5372 17.6855 15.5394 17.5415 15.5489 17.4043C15.5945 16.6975 15.7771 15.9745 16.095 15.2357C16.4115 14.5002 16.8637 13.7487 17.4503 12.9811C18.0243 12.2306 18.728 11.4635 19.5615 10.6799C20.3929 9.89796 21.3547 9.09917 22.4464 8.28313C23.2392 7.68876 24.0296 7.17452 24.8173 6.74061C25.6058 6.30588 26.3923 5.95149 27.175 5.67721C27.9642 5.40109 28.7504 5.20612 29.5334 5.09333C30.3157 4.98033 31.0952 4.94951 31.8708 5.00005Z" fill="white"/>
<path fill-rule="evenodd" clip-rule="evenodd" d="M7.36392 5.15494C7.89583 5.19993 8.39424 5.24534 8.85958 5.29013C9.32821 5.33574 9.7724 5.38175 10.1899 5.42818C10.829 5.49988 11.3868 5.57159 11.8622 5.64268C12.344 5.71541 12.7469 5.78815 13.0701 5.86149C13.4939 5.95764 13.8107 6.07557 14.0203 6.21507C14.2557 6.37203 14.3642 6.55899 14.3455 6.77492L14.3439 6.78908C14.3182 7.01795 14.2321 7.20943 14.0852 7.36249C13.9422 7.51186 13.7425 7.6228 13.4873 7.6945C13.2961 7.74874 13.067 7.77914 12.8015 7.78653C12.5421 7.79372 12.246 7.77811 11.9134 7.74113C11.1206 7.7249 10.0442 7.40112 9.22344 7.359L9.23331 7.74031L9.22159 7.79249C9.10982 8.29646 9.00484 8.79859 8.90684 9.29783C8.80967 9.79358 8.71947 10.2867 8.63606 10.7764C8.55141 11.2738 8.4752 11.7626 8.40678 12.2417C8.33878 12.7196 8.27899 13.1903 8.22702 13.6529L7.67189 18.596C7.60266 19.2114 7.55417 19.7515 7.52602 20.2142C7.49787 20.6762 7.49047 21.0608 7.50362 21.3667L7.52561 21.9145C9.0373 21.8976 11.6691 21.7063 13.0475 21.8559C13.1494 21.8678 13.2449 21.8923 13.3337 21.9292C13.4232 21.967 13.5052 22.0176 13.5794 22.0809C13.6486 22.1398 13.7096 22.2091 13.7622 22.2872C13.8148 22.3652 13.8592 22.4517 13.8945 22.5458L13.9344 22.6518L13.8939 23.0091C13.867 23.2491 13.687 23.4512 13.3548 23.6147C13.0495 23.7651 12.6072 23.8872 12.0278 23.9805C11.5358 24.0594 10.9279 24.1298 10.2049 24.1908C9.48293 24.2516 8.64346 24.3038 7.68648 24.3472C6.7258 24.3907 5.88181 24.4271 5.15534 24.4561C4.41511 24.4857 3.78068 24.5078 3.25144 24.5239C2.7257 24.5391 2.29548 24.5475 1.96163 24.5489C1.62942 24.5502 1.40281 24.5446 1.28221 24.5315C1.13511 24.515 0.999105 24.4848 0.873781 24.4407C0.746608 24.3955 0.630737 24.3361 0.526574 24.2636C0.416453 24.1865 0.320504 24.0953 0.239557 23.9901C0.15861 23.886 0.0924525 23.768 0.0415011 23.6378L0 23.5332L0.0322619 23.2462C0.0554777 23.0381 0.143618 22.8595 0.296677 22.7095C0.442752 22.5657 0.647994 22.4513 0.910968 22.3652C1.10861 22.3005 1.34673 22.2496 1.6249 22.2128C1.89836 22.1764 2.21207 22.1532 2.56668 22.1433L4.74711 21.9488C4.87531 19.5167 5.09823 17.0714 5.38154 14.6321C5.66342 12.2055 6.00549 9.77919 6.37325 7.37626L6.33955 7.37214C5.76594 7.30825 5.22417 7.25915 4.71486 7.22464C4.20473 7.18971 3.73055 7.16979 3.29232 7.16445C2.85328 7.15911 2.44834 7.16917 2.07833 7.19382C1.70996 7.21848 1.37939 7.25791 1.08745 7.31236L1.02438 7.32407L0.95267 7.31607C0.838851 7.30354 0.734277 7.27414 0.638949 7.22853C0.543415 7.18251 0.457336 7.12007 0.381114 7.04138C0.312494 6.96988 0.254353 6.8875 0.207305 6.79484C0.161079 6.70259 0.125326 6.60049 0.100056 6.48831L0.0842362 6.4162L0.0930741 6.33627C0.162105 5.71869 0.821592 5.31539 2.07072 5.12679C3.27075 4.94558 5.03556 4.95483 7.36392 5.15494Z" fill="white"/>
<path fill-rule="evenodd" clip-rule="evenodd" d="M227.161 11.4854C222.754 11.688 226.028 17.4704 229.467 14.2027C233.331 10.5313 226.301 4.90655 222.639 10.0752C218.506 15.909 227.951 22.4012 232.593 15.911C238.029 8.31083 225.937 -0.358304 219.814 7.77543C213.343 16.3706 225.569 27.9201 234.518 20.1422C240.386 15.0414 238.945 5.47811 231.924 1.11745L229.803 0L232.11 0.715581C242.555 5.46639 241.465 22.6343 229.251 24.2241C215.64 25.9957 211.061 6.84248 222.89 2.77274C233.927 -1.02458 240.804 14.192 231.726 19.3508C222.914 24.3593 215.689 11.8053 223.305 7.51615C230.19 3.63912 234.869 13.7976 228.68 15.7029C223.375 17.336 223.606 9.93573 227.161 11.4854Z" fill="white"/>
<path fill-rule="evenodd" clip-rule="evenodd" d="M113.012 5.2649C113.786 5.27805 114.468 5.33167 115.06 5.42597C115.657 5.52069 116.164 5.65689 116.579 5.83358C117.046 6.03287 117.408 6.28475 117.663 6.58778C117.921 6.89452 118.069 7.2518 118.107 7.66003L118.11 7.68549C118.125 8.0212 117.995 8.3865 117.721 8.77911C117.454 9.15981 117.05 9.56989 116.508 10.0089C116.011 10.4112 115.392 10.8465 114.653 11.3154C113.937 11.7684 113.103 12.2557 112.151 12.7769L112.393 13.6388L112.395 13.6885C112.415 14.1181 112.513 14.6665 112.691 15.3323C112.869 16.0031 113.128 16.7912 113.464 17.6954C113.806 18.6117 114.227 19.6457 114.731 20.7981C115.234 21.9502 115.816 23.2156 116.476 24.5948C117.099 25.5372 117.711 26.3578 118.31 27.0565C118.91 27.7546 119.497 28.3307 120.071 28.7833C120.625 29.2207 121.167 29.5424 121.696 29.7495C122.22 29.9541 122.732 30.0449 123.23 30.0219L123.393 30.0146C123.778 29.9741 124.192 29.879 124.634 29.7286C125.08 29.5772 125.552 29.37 126.052 29.1079C126.561 28.8408 127.098 28.5152 127.664 28.1324C128.227 27.7521 128.815 27.3151 129.429 26.8235L131.037 24.6856L131.797 24.6505C131.822 25.2091 131.846 25.7681 131.874 26.3265L131.868 26.3719C131.833 26.6333 131.711 26.9242 131.504 27.2434C131.301 27.5559 131.016 27.8982 130.648 28.2703C130.302 28.6193 129.88 29.0007 129.382 29.4136C128.886 29.8251 128.31 30.2714 127.657 30.7519L127.616 30.7772C127.189 31.0276 126.791 31.2474 126.424 31.4358C126.054 31.6263 125.713 31.7863 125.401 31.9162C125.074 32.0524 124.773 32.1578 124.502 32.2311C124.227 32.3053 123.979 32.3472 123.758 32.3575C122.995 32.3926 122.237 32.2887 121.484 32.046C120.733 31.804 119.987 31.4235 119.248 30.9056C118.526 30.4004 117.81 29.7623 117.1 28.9937C116.392 28.2267 115.688 27.3268 114.989 26.2949C114.982 26.2856 114.975 26.2733 114.969 26.263C114.497 25.4277 114.054 24.6081 113.64 23.8044C113.222 22.9935 112.832 22.1958 112.469 21.4111C112.108 20.6282 111.773 19.8582 111.466 19.1015C111.159 18.3417 110.879 17.5962 110.627 16.8644C110.457 16.4826 110.299 16.1496 110.154 15.8665C110.008 15.5828 109.874 15.3465 109.753 15.1591C109.661 15.018 109.59 14.9134 109.539 14.8456C109.51 14.807 109.56 14.785 109.535 14.7856L109.497 14.7875C109.29 14.8368 109.078 14.8998 108.861 14.9761C108.639 15.0541 108.412 15.1464 108.181 15.2518C107.942 15.3611 107.693 15.4872 107.437 15.6288C107.18 15.7708 106.917 15.9279 106.649 16.0984C106.377 16.2741 106.141 16.4323 105.941 16.573C105.743 16.7125 105.579 16.8356 105.451 16.9416C105.344 17.0304 105.263 17.0842 105.213 17.1162C105.217 17.2921 105.201 17.5103 105.186 17.7125C105.179 17.8164 105.171 17.9171 105.168 17.9941C105.184 18.3559 105.211 18.7773 105.247 19.2587C105.284 19.7489 105.329 20.2839 105.383 20.8645C105.437 21.4438 105.502 22.0976 105.578 22.8247C105.652 23.5349 105.737 24.3216 105.833 25.1832L105.836 25.2124C105.842 25.3457 105.827 25.4731 105.792 25.5947C105.756 25.7167 105.7 25.832 105.623 25.9399C105.555 26.0371 105.47 26.1268 105.369 26.2094C105.271 26.2896 105.157 26.3627 105.028 26.4282L104.92 26.4833L104.818 26.4794C104.6 26.4882 104.405 26.4775 104.234 26.4471C104.056 26.4159 103.901 26.3633 103.768 26.2895C103.601 26.1963 103.472 26.0757 103.383 25.9278C103.293 25.7809 103.244 25.6089 103.235 25.4127L103.227 25.2452C103.114 22.784 102.994 20.575 102.865 18.6185C102.736 16.6593 102.601 14.9598 102.458 13.5207C102.328 12.2083 102.192 11.1108 102.051 10.2275C101.919 9.39854 101.783 8.7604 101.643 8.31376L101.161 8.33617L101.453 7.65797C101.545 7.44512 101.646 7.25489 101.753 7.08827C101.862 6.92144 101.979 6.77824 102.105 6.65969C102.246 6.52492 102.398 6.42199 102.559 6.34967C102.72 6.27735 102.891 6.23687 103.071 6.22845L103.177 6.22373L104.41 6.77104L104.92 6.80946L107.453 6.03327C107.943 5.92685 108.431 5.83009 108.917 5.74277C109.398 5.65587 109.869 5.58067 110.327 5.51678C110.785 5.45227 111.237 5.39907 111.681 5.35716C112.125 5.31463 112.558 5.2838 112.981 5.26428L113.012 5.2649ZM104.628 9.89943L104.779 13.2057C104.793 13.4888 104.809 13.735 104.829 13.9425C104.848 14.1479 104.871 14.3188 104.897 14.4536L104.9 14.4834C105.016 14.4672 105.136 14.4437 105.26 14.4131C105.485 14.3583 105.724 14.2798 105.976 14.1783C106.238 14.0733 106.513 13.9435 106.802 13.7892C107.09 13.6349 107.395 13.4547 107.716 13.2487C108.783 12.5023 109.723 11.8485 110.537 11.2874C111.359 10.7206 112.064 10.2407 112.65 9.84827C113.204 9.47764 113.655 9.18323 114.004 8.96546C114.345 8.75261 114.594 8.6092 114.751 8.53442C114.882 8.41238 114.997 8.29611 115.096 8.18722C115.197 8.07504 115.28 7.97149 115.343 7.87678C115.378 7.82644 115.407 7.77857 115.43 7.73379L115.438 7.719C115.287 7.65757 115.126 7.60292 114.953 7.55546C114.741 7.49691 114.51 7.44861 114.259 7.4106C113.954 7.36417 113.627 7.33397 113.276 7.3198C112.924 7.30603 112.546 7.3085 112.144 7.32658C111.526 7.35493 110.907 7.42623 110.289 7.53943C109.671 7.65263 109.054 7.80837 108.437 8.00663C107.827 8.20242 107.216 8.44074 106.605 8.71994C106.002 8.99586 105.397 9.31307 104.792 9.67199L104.628 9.89943Z" fill="white"/>
</svg>
