<svg width="35" height="37" viewBox="0 0 35 37" fill="none" xmlns="http://www.w3.org/2000/svg">
<path fill-rule="evenodd" clip-rule="evenodd" d="M16.7294 17.369C10.066 17.6753 15.0159 26.4198 20.2173 21.4782C26.0608 15.9261 15.4292 7.41997 9.8914 15.2364C3.64119 24.0585 17.925 33.8764 24.9451 24.0616C33.1654 12.5681 14.8786 -0.541849 5.61904 11.7585C-4.16592 24.7566 14.3222 42.2225 27.855 30.4603C36.7303 22.7464 34.5498 8.28433 23.9328 1.68988L20.7246 0L24.2146 1.08214C40.0099 8.2666 38.3617 34.229 19.8901 36.6332C-0.692992 39.3123 -7.61738 10.3476 10.2708 4.19311C26.9618 -1.54943 37.3619 21.462 23.6339 29.2635C10.3071 36.8376 -0.61934 17.8527 10.8987 11.3664C21.31 5.50329 28.3866 20.8655 19.0276 23.7469C11.0052 26.2166 11.3541 15.0254 16.7294 17.369Z" fill="#FF6361"/>
</svg>
